<?xml version="1.0" standalone="no"?>
<!DOCTYPE svg PUBLIC "-//W3C//DTD SVG 20010904//EN"
 "http://www.w3.org/TR/2001/REC-SVG-20010904/DTD/svg10.dtd">
<svg version="1.0" xmlns="http://www.w3.org/2000/svg"
 width="789.000000pt" height="789.000000pt" viewBox="0 0 789.000000 789.000000"
 preserveAspectRatio="xMidYMid meet">
<metadata>
Created by potrace 1.14, written by Peter Selinger 2001-2017
</metadata>
<g transform="translate(0.000000,789.000000) scale(0.100000,-0.100000)"
fill="#000000" stroke="none">
<path d="M0 3945 l0 -3945 3945 0 3945 0 0 3945 0 3945 -3945 0 -3945 0 0
-3945z m3836 3732 l27 -24 1 -202 c1 -201 1 -203 -23 -222 -31 -25 -73 -24
-97 2 -17 19 -19 41 -22 215 -3 204 1 228 41 244 34 14 44 12 73 -13z m-1823
-658 c12 -6 86 -75 164 -153 132 -130 143 -144 143 -178 0 -46 -21 -68 -67
-68 -31 0 -46 11 -132 98 -180 180 -203 209 -199 250 2 27 9 40 28 49 31 16
36 16 63 2z m3594 -11 c14 -13 23 -33 23 -52 0 -26 -23 -53 -153 -183 -141
-142 -155 -153 -189 -153 -43 0 -68 27 -68 74 0 26 24 53 158 183 168 163 185
173 229 131z m-1686 -9 c158 -12 239 -27 409 -76 277 -79 484 -191 721 -390
204 -171 313 -307 427 -533 112 -221 171 -424 203 -700 14 -123 7 -353 -15
-480 -20 -122 -82 -363 -113 -445 -29 -78 -269 -575 -277 -575 -5 0 78 179
146 313 22 43 38 80 35 83 -2 2 -12 -13 -23 -33 -73 -143 -174 -277 -280 -370
-36 -32 -87 -80 -112 -108 -127 -134 -254 -241 -274 -229 -6 4 -8 3 -5 -3 7
-11 -87 -105 -205 -206 -42 -36 -74 -68 -72 -71 2 -3 1 -4 -2 -1 -4 2 -12 -1
-19 -8 -7 -7 -59 -41 -115 -77 -85 -54 -99 -66 -85 -75 42 -25 46 -34 8 -15
-24 11 -43 22 -43 25 0 2 20 16 44 30 23 14 52 35 62 46 10 11 32 26 49 33 39
17 330 265 320 274 -2 2 -58 -32 -124 -77 -118 -79 -172 -113 -281 -176 -66
-37 -93 -49 -85 -35 3 6 31 22 61 37 30 15 66 37 80 50 14 13 27 23 30 23 3 0
15 11 27 24 12 13 31 26 42 30 11 3 38 22 60 41 22 19 57 49 78 67 22 18 44
38 50 44 7 6 36 27 66 48 40 28 59 36 78 31 17 -4 22 -10 16 -18 -4 -7 -1 -5
9 5 9 10 21 18 27 18 6 0 11 4 11 8 0 5 24 25 53 45 28 20 72 57 97 83 45 48
41 46 -55 -27 -48 -37 -174 -101 -185 -94 -4 3 -19 -4 -33 -15 -43 -34 -147
-78 -244 -104 -50 -13 -102 -27 -115 -30 -12 -4 -5 2 16 14 22 11 46 20 53 20
8 0 11 5 7 12 -5 8 0 9 14 6 12 -4 20 -3 17 2 -2 4 17 13 43 20 83 21 177 52
186 61 14 13 0 11 -64 -6 -67 -18 -74 -14 -18 10 95 40 168 75 168 80 0 3 -17
3 -37 0 -36 -6 -34 -4 22 25 71 37 135 96 219 205 57 74 166 247 166 264 0 4
13 25 30 47 45 60 36 60 -35 -1 -67 -56 -107 -78 -166 -89 -29 -6 -28 -4 12
12 70 29 153 88 209 148 41 45 54 70 75 138 14 45 25 89 25 97 0 8 7 24 16 35
15 19 15 19 11 -1 -40 -162 -73 -246 -104 -264 -10 -5 -15 -12 -12 -15 11 -11
179 173 179 197 0 17 2 19 10 7 7 -11 11 -9 19 12 5 14 30 68 56 119 31 64 44
83 40 59 -4 -19 -11 -39 -16 -44 -16 -17 -10 -28 6 -12 8 8 15 17 15 20 0 3
12 31 26 61 26 58 44 149 25 130 -5 -5 -14 -26 -19 -45 -8 -26 -10 -29 -11
-12 -1 19 -11 12 -66 -45 -72 -75 -80 -93 -72 -160 3 -28 1 -40 -4 -32 -5 8
-9 31 -9 53 0 33 -2 37 -15 26 -13 -11 -15 -5 -15 40 0 88 -40 314 -70 403
-35 97 -43 107 -55 60 -9 -36 -69 -125 -126 -187 -27 -28 -48 -49 -49 -46 0 3
18 26 41 50 58 62 99 138 99 183 0 24 5 40 15 43 24 10 17 46 -19 104 -19 30
-44 73 -56 95 -19 37 -20 38 -1 17 11 -12 22 -28 24 -35 6 -15 81 64 99 105 7
15 16 28 19 28 4 0 5 33 3 73 l-3 72 9 -60 c14 -106 11 -277 -6 -334 -8 -29
-12 -60 -9 -70 19 -47 57 -191 70 -265 8 -47 17 -96 20 -109 10 -38 13 -60 14
-90 l1 -27 30 28 c32 31 42 54 13 31 -19 -16 -19 -15 25 56 44 69 76 191 98
365 17 140 18 181 3 160 -8 -11 -9 1 -5 45 3 33 2 74 -3 90 -7 22 -10 25 -11
10 -1 -11 -10 14 -19 55 -10 41 -21 86 -25 100 -5 20 -5 21 4 8 5 -9 17 -43
25 -75 l15 -58 -6 49 c-3 27 -22 95 -42 150 -35 96 -37 99 -43 66 -3 -19 -18
-62 -34 -94 -51 -110 -73 -180 -81 -261 l-9 -80 -6 140 c-7 163 -18 231 -30
200 -7 -18 -8 -17 -7 5 4 89 -12 92 -42 6 -13 -35 -47 -99 -75 -142 -44 -66
-51 -82 -43 -99 11 -19 10 -20 -10 -2 -19 18 -20 18 -33 -1 -8 -10 -19 -21
-26 -23 -26 -9 -123 -111 -116 -122 4 -7 0 -6 -10 2 -9 7 -17 9 -17 3 0 -5
-28 -28 -62 -49 -93 -59 -162 -97 -154 -85 3 6 43 32 89 58 45 26 91 56 102
68 11 12 41 38 67 58 25 21 59 51 75 68 15 16 34 30 40 30 30 0 7 41 -72 133
-47 53 -90 97 -96 97 -6 0 -42 -24 -79 -52 -54 -41 -68 -57 -64 -73 5 -18 4
-18 -8 -4 -12 15 -16 15 -43 2 -29 -16 -30 -15 -13 4 14 15 15 22 5 33 -10 12
-9 12 6 1 15 -12 22 -10 51 10 95 68 126 94 126 105 0 6 -25 33 -57 60 -31 27
-67 58 -79 69 -13 11 -39 31 -58 45 -38 27 -45 40 -21 40 15 0 86 -60 180
-152 l50 -49 46 50 c52 55 113 173 106 202 -3 11 0 19 7 19 7 0 20 19 29 41
21 52 16 59 -92 149 -123 102 -358 228 -486 260 -91 23 -250 28 -330 10 -28
-6 -73 -15 -101 -20 -54 -9 -230 -79 -329 -132 -100 -52 -277 -174 -324 -221
l-43 -45 83 30 c195 69 349 83 584 52 120 -16 136 -18 188 -30 27 -6 28 -5 21
22 -13 58 -103 250 -130 277 -15 15 -24 30 -20 35 20 19 119 -158 152 -273 9
-33 21 -63 26 -66 5 -3 9 -10 8 -15 -1 -5 26 -19 61 -32 154 -55 199 -74 199
-88 0 -11 -4 -12 -17 -4 -10 5 -57 25 -104 44 -199 78 -349 112 -549 123 -98
5 -132 2 -220 -17 -114 -24 -287 -82 -306 -102 -13 -15 -77 -238 -99 -348 -28
-146 -55 -340 -55 -404 0 -42 -4 -66 -11 -66 -8 0 -9 23 -5 78 22 261 48 419
105 625 16 59 25 107 20 107 -14 0 -57 -23 -181 -97 l-107 -63 27 -45 c15 -25
51 -83 80 -129 49 -81 85 -153 63 -131 -5 6 -22 33 -38 61 -64 115 -139 234
-146 234 -4 0 -59 -35 -122 -77 -81 -55 -119 -87 -135 -115 -12 -21 -23 -38
-25 -38 -7 0 14 50 30 73 8 12 15 27 15 34 0 8 29 72 65 144 l65 131 -49 101
c-27 56 -59 131 -71 167 -33 94 -32 94 -61 69 -13 -12 -67 -53 -119 -92 -52
-38 -101 -74 -107 -80 -7 -5 -13 -7 -13 -3 0 3 53 48 118 99 64 52 123 101
130 110 11 13 11 26 -2 77 -9 34 -16 75 -16 91 0 28 -2 29 -22 18 -13 -6 -43
-30 -67 -53 -39 -36 -42 -37 -23 -10 23 33 84 84 101 84 6 0 11 6 11 13 0 6 3
23 6 37 5 19 -11 7 -69 -52 -110 -111 -143 -185 -171 -388 -9 -58 -18 -121
-21 -140 l-7 -35 32 35 c17 19 28 28 24 20 -14 -30 8 -1 52 66 43 66 56 73 32
17 -13 -30 -56 -88 -100 -138 -18 -19 -30 -46 -33 -75 -7 -54 -10 -68 -20 -95
-4 -11 15 4 43 33 29 28 54 52 57 52 3 0 -17 -28 -46 -62 -47 -57 -51 -65 -46
-102 5 -39 5 -40 -8 -17 -9 19 -12 65 -9 180 2 86 1 148 -2 138 -3 -9 -9 -15
-14 -12 -8 5 -76 -72 -167 -190 -38 -51 -40 -57 -32 -92 5 -21 16 -74 23 -118
8 -44 17 -93 20 -110 l6 -30 -14 30 c-8 17 -16 46 -19 65 -3 19 -13 58 -22 85
-9 28 -13 60 -10 73 15 60 -36 -8 -95 -126 -51 -103 -60 -169 -45 -314 14
-129 20 -164 37 -213 18 -48 98 -207 121 -240 l22 -30 6 35 7 35 -1 -41 c-1
-45 22 -90 86 -167 21 -27 37 -50 35 -53 -6 -6 -50 44 -95 108 -20 29 -49 67
-64 83 -15 17 -50 73 -79 125 -29 52 -59 102 -67 110 -9 8 -13 10 -9 3 3 -6 1
-15 -5 -19 -7 -4 -9 -3 -6 2 3 6 1 16 -4 24 -8 13 -10 13 -19 0 -14 -21 -12
-48 6 -127 9 -37 22 -104 30 -148 7 -44 16 -93 19 -110 8 -41 -51 131 -78 230
-20 73 -22 102 -22 350 0 184 -2 248 -7 200 -5 -38 -9 -151 -11 -250 -2 -154
1 -196 21 -295 42 -208 117 -433 189 -564 9 -16 11 -26 5 -22 -22 13 -90 141
-126 236 -20 52 -39 97 -42 100 -7 6 3 -39 23 -105 16 -56 17 -57 72 -177 22
-49 37 -88 33 -88 -4 0 1 -5 11 -11 9 -5 17 -16 17 -24 0 -8 16 -40 36 -71 56
-88 24 -55 -46 46 -123 181 -206 400 -252 670 -19 114 -16 526 5 670 43 286
124 507 265 719 103 155 208 262 450 459 206 167 580 316 882 351 52 6 109 13
125 15 64 7 167 6 296 -5z m-1234 -644 c-9 -8 -18 -20 -20 -27 -4 -10 -8 -9
-16 2 -8 11 -7 16 4 18 8 2 15 8 15 13 0 5 7 9 16 9 14 0 14 -2 1 -15z m1769
-23 c13 -8 37 -52 32 -57 -2 -2 -16 11 -31 30 -26 33 -26 44 -1 27z m-1831
-11 c3 -5 1 -12 -5 -16 -5 -3 -10 1 -10 9 0 18 6 21 15 7z m1899 -34 l21 -17
-25 8 c-16 6 -26 18 -27 33 -1 13 0 17 3 9 4 -8 16 -23 28 -33z m-326 -11 c26
-24 65 -58 86 -75 22 -18 95 -85 163 -151 142 -138 129 -149 113 89 -5 80 -6
149 -3 154 15 25 24 -39 29 -211 5 -149 3 -196 -9 -232 l-15 -45 -1 56 -1 56
-132 131 c-73 72 -167 158 -208 193 -41 34 -76 66 -78 70 -8 19 12 7 56 -35z
m300 -29 c15 -10 52 -81 51 -99 0 -9 -2 -8 -6 2 -15 43 -60 91 -106 116 -75
38 -83 51 -12 17 33 -16 66 -32 73 -36z m-1868 12 c0 -11 -4 -17 -10 -14 -5 3
-10 13 -10 21 0 8 5 14 10 14 6 0 10 -9 10 -21z m2034 -47 c17 -105 1 -288
-41 -461 -30 -126 -146 -365 -228 -469 -69 -89 -233 -238 -387 -353 -68 -50
-129 -96 -135 -101 -7 -6 -13 -8 -13 -5 0 3 53 46 118 95 176 135 367 316 402
383 6 10 8 36 6 57 l-6 37 10 -32 c6 -18 12 -33 14 -33 9 0 78 125 114 205 73
163 114 334 127 527 5 86 4 97 -12 107 -17 10 -17 10 0 11 11 0 17 8 17 24 0
19 -7 26 -32 32 -28 6 -30 8 -13 14 34 12 52 0 59 -38z m-686 -46 c59 -36 132
-87 162 -115 64 -58 54 -69 -11 -13 -77 66 -242 172 -268 172 -5 0 -13 5 -16
10 -16 25 34 5 133 -54z m-1318 30 c0 -3 -4 -8 -10 -11 -5 -3 -10 -1 -10 4 0
6 5 11 10 11 6 0 10 -2 10 -4z m-15 -103 c-8 -21 -33 -108 -54 -193 -21 -85
-55 -195 -75 -243 -41 -98 -42 -110 -21 -161 8 -20 13 -36 10 -36 -3 0 -1 -6
5 -12 6 -7 20 -29 32 -48 18 -30 22 -32 32 -18 18 25 156 169 156 163 0 -2
-36 -44 -80 -92 -44 -48 -80 -92 -80 -97 0 -6 17 -27 37 -48 l37 -38 13 22
c12 22 12 21 7 -8 -6 -30 -2 -33 88 -91 97 -63 274 -153 301 -153 8 0 17 -4
19 -9 2 -5 27 -20 56 -35 l52 -26 1 22 c1 21 2 21 6 3 3 -11 10 -26 15 -32 6
-7 8 -13 6 -13 -25 0 -372 172 -479 237 -47 29 -92 53 -99 53 -7 0 -10 3 -7 6
3 4 -10 26 -31 49 -30 35 -105 163 -108 184 0 3 -6 25 -12 47 -11 37 -10 46
12 85 24 44 64 161 65 189 0 25 83 304 93 318 18 21 18 13 3 -25z m1195 -110
c60 -5 115 -24 207 -71 55 -28 117 -95 151 -164 17 -37 32 -73 32 -82 0 -9 3
-16 8 -16 20 0 6 -265 -17 -307 -5 -10 -19 -39 -31 -65 -11 -25 -27 -49 -35
-52 -8 -3 -15 -12 -15 -20 0 -17 -51 -62 -82 -71 -13 -4 -32 -15 -43 -25 -29
-27 -164 -60 -241 -60 -76 0 -194 19 -194 32 0 4 -5 8 -12 8 -21 0 -119 83
-147 124 -49 73 -62 123 -68 253 -5 97 -2 137 12 195 16 68 48 139 67 146 4 2
8 10 8 18 0 8 3 14 8 14 4 0 21 14 39 30 18 17 35 30 38 30 4 0 13 7 21 15 9
8 24 15 35 15 10 0 19 4 19 9 0 19 130 63 160 54 8 -3 44 -7 80 -10z m459
-216 c23 -69 50 -168 61 -219 25 -117 25 -183 1 -78 -37 155 -72 275 -111 373
-34 88 -36 98 -16 76 12 -15 42 -83 65 -152z m-1663 135 c-18 -16 -18 -16 -6
6 6 13 14 21 18 18 3 -4 -2 -14 -12 -24z m-236 -78 c-6 -38 -8 -94 -5 -124 4
-30 8 -84 10 -120 2 -72 24 -176 62 -289 13 -40 22 -75 20 -78 -8 -7 -47 103
-67 192 -12 50 -28 119 -36 155 -20 81 -16 299 5 324 21 25 23 15 11 -60z
m1976 9 c61 -58 46 -49 -34 20 -23 20 -39 37 -34 37 4 0 35 -26 68 -57z m329
-223 c8 -30 14 -64 14 -75 -1 -21 -55 166 -64 220 -6 38 32 -72 50 -145z
m-155 68 c0 -13 -4 -10 -55 44 l-50 51 52 -44 c29 -24 53 -47 53 -51z m-2190
-135 c-4 -21 -17 -63 -30 -93 -12 -30 -42 -111 -66 -180 -51 -147 -56 -147
-14 0 29 97 30 116 14 167 -5 16 -4 16 11 -2 14 -17 17 -18 25 -5 8 12 35 79
55 138 9 25 12 11 5 -25z m2545 -20 l18 -28 -21 19 c-12 11 -22 23 -22 28 0
14 7 9 25 -19z m511 -44 c-18 -41 -21 -29 -4 18 7 19 14 30 16 25 1 -4 -4 -24
-12 -43z m-2716 -63 c0 -3 -4 -8 -10 -11 -5 -3 -10 -1 -10 4 0 6 5 11 10 11 6
0 10 -2 10 -4z m2017 -88 c-2 -18 -4 -6 -4 27 0 33 2 48 4 33 2 -15 2 -42 0
-60z m-2377 -35 c-10 -16 -11 -15 -6 7 3 14 7 39 8 55 1 26 2 25 5 -7 2 -21
-1 -46 -7 -55z m3207 25 c-3 -7 -5 -2 -5 12 0 14 2 19 5 13 2 -7 2 -19 0 -25z
m-2970 -41 c37 -17 22 -16 -34 1 -29 9 -55 22 -57 29 -5 12 12 6 91 -30z m730
-36 c58 -70 108 -125 228 -249 130 -134 142 -148 56 -67 -156 148 -351 364
-351 389 0 6 7 2 15 -8 8 -11 32 -40 52 -65z m-902 -23 c-17 -28 -24 -34 -20
-18 9 32 35 73 42 67 3 -3 -7 -25 -22 -49z m632 20 c-3 -7 -5 -2 -5 12 0 14 2
19 5 13 2 -7 2 -19 0 -25z m2132 -50 l11 -33 -20 25 c-21 27 -25 40 -11 40 5
0 14 -15 20 -32z m-39 8 c0 -2 -8 -10 -17 -17 -16 -13 -17 -12 -4 4 13 16 21
21 21 13z m-2676 -58 c37 -55 154 -175 218 -221 20 -15 42 -32 50 -39 7 -7 32
-25 56 -41 23 -15 42 -29 42 -32 0 -10 -99 57 -180 122 -113 91 -261 263 -226
263 3 0 21 -24 40 -52z m2636 8 c0 -3 -4 -8 -10 -11 -5 -3 -10 -1 -10 4 0 6 5
11 10 11 6 0 10 -2 10 -4z m-2876 -40 c-3 -15 -8 -25 -11 -23 -2 3 -1 17 3 31
3 15 8 25 11 23 2 -3 1 -17 -3 -31z m127 -27 c-11 -24 -20 -41 -20 -37 -1 12
31 89 35 85 3 -2 -4 -24 -15 -48z m209 -3 c0 -12 -5 -7 -19 24 -11 24 -11 24
3 6 9 -11 16 -24 16 -30z m2430 -46 c-12 -17 -24 -29 -27 -26 -6 5 40 65 46
60 2 -1 -7 -17 -19 -34z m-320 10 c-34 -26 -108 -66 -93 -50 11 12 103 69 113
69 3 0 -6 -8 -20 -19z m280 -49 c0 -5 -19 -24 -42 -42 l-43 -33 40 42 c42 45
45 47 45 33z m-2642 -53 c-13 -37 -16 -33 -10 16 3 23 7 33 12 26 4 -7 3 -26
-2 -42z m2252 38 c0 -8 -268 -162 -320 -183 -45 -18 -72 -22 -145 -21 l-90 1
100 6 c87 5 110 11 168 39 37 18 87 48 111 67 24 18 53 36 65 40 12 3 41 17
64 31 44 25 47 26 47 20z m-1275 -50 c19 -8 35 -18 35 -21 0 -5 -70 21 -79 30
-8 9 10 5 44 -9z m-998 -48 c-3 -8 -6 -5 -6 6 -1 11 2 17 5 13 3 -3 4 -12 1
-19z m2553 8 c0 -2 -7 -7 -16 -10 -8 -3 -12 -2 -9 4 6 10 25 14 25 6z m-2563
-48 c-3 -8 -6 -5 -6 6 -1 11 2 17 5 13 3 -3 4 -12 1 -19z m2476 -22 c-35 -31
-93 -66 -109 -66 -3 0 18 16 47 36 30 20 61 43 69 50 8 8 18 14 22 14 5 0 -9
-15 -29 -34z m-2486 -28 c-3 -7 -5 -2 -5 12 0 14 2 19 5 13 2 -7 2 -19 0 -25z
m3810 -3 c81 -19 158 -40 171 -45 32 -14 48 -54 34 -85 -22 -48 -47 -48 -239
0 -97 24 -180 48 -184 52 -4 4 -11 20 -14 35 -5 21 -1 33 19 52 14 15 34 26
45 26 10 0 86 -16 168 -35z m-4405 8 c10 -9 18 -30 18 -49 0 -41 -33 -69 -95
-78 -24 -4 -90 -18 -145 -32 -123 -29 -154 -30 -180 -4 -25 25 -26 72 -2 92 9
9 62 25 117 37 55 12 123 28 150 35 69 19 115 19 137 -1z m1535 -85 c-2 -13
-4 -3 -4 22 0 25 2 35 4 23 2 -13 2 -33 0 -45z m1423 28 c0 -2 -16 -13 -35
-25 -19 -11 -35 -18 -35 -16 0 5 61 45 68 45 1 0 2 -2 2 -4z m-1515 -77 c44
-27 18 -22 -35 7 -25 14 -34 22 -20 18 14 -3 39 -15 55 -25z m1425 21 c-8 -6
-24 -15 -35 -21 -16 -8 -15 -6 4 10 13 12 28 21 35 21 6 0 4 -5 -4 -10z m1007
-32 c-3 -7 -5 -2 -5 12 0 14 2 19 5 13 2 -7 2 -19 0 -25z m-2345 -22 c14 0 37
-26 24 -26 -11 0 -76 31 -76 36 0 3 8 3 18 -1 9 -5 25 -8 34 -9z m278 -106
c18 -12 2 -12 -25 0 -13 6 -15 9 -5 9 8 0 22 -4 30 -9z m1820 -31 c-46 -39
-159 -94 -235 -114 -45 -11 -75 -13 -120 -6 l-60 9 76 1 c100 1 185 28 284 90
94 58 102 61 55 20z m-464 -76 c-4 -9 -1 -20 6 -25 10 -6 9 -8 -3 -8 -24 0
-29 10 -16 31 15 23 21 25 13 2z m-2031 -193 c3 -6 -1 -7 -9 -4 -18 7 -21 14
-7 14 6 0 13 -4 16 -10z m178 -47 c-7 -2 -21 -2 -30 0 -10 3 -4 5 12 5 17 0
24 -2 18 -5z m1814 -280 c-3 -10 -5 -4 -5 12 0 17 2 24 5 18 2 -7 2 -21 0 -30z
m-2217 -278 c0 -5 -5 -3 -10 5 -5 8 -10 20 -10 25 0 6 5 3 10 -5 5 -8 10 -19
10 -25z m1920 -135 c-8 -5 -22 -9 -30 -9 -10 0 -8 3 5 9 27 12 43 12 25 0z
m-1784 -157 c9 -21 11 -33 6 -28 -15 15 -52 84 -52 98 0 16 28 -26 46 -70z
m141 -21 c12 4 109 -101 264 -282 135 -158 239 -238 429 -330 47 -23 87 -45
90 -49 3 -4 28 -14 55 -23 28 -9 102 -35 165 -58 126 -46 544 -174 600 -184
55 -10 -73 38 -257 96 -109 34 -159 55 -151 61 8 5 2 6 -17 3 -23 -5 -26 -4
-13 4 18 11 35 7 276 -72 68 -22 125 -38 128 -36 7 8 -135 60 -431 160 -49 16
-135 51 -190 78 -55 26 -121 57 -147 69 -27 13 -48 27 -48 33 0 5 -9 6 -20 3
-13 -4 -22 -1 -26 9 -3 9 -12 16 -20 16 -7 0 -28 9 -46 20 -18 11 -26 20 -18
20 13 0 13 2 0 9 -8 6 -18 7 -22 5 -5 -3 -20 4 -34 15 -16 13 -21 21 -13 22
10 0 11 2 2 6 -7 2 -13 8 -13 13 0 5 31 -12 70 -37 38 -25 67 -50 63 -56 -3
-6 -1 -7 5 -3 9 6 170 -67 207 -93 24 -18 173 -74 490 -186 361 -128 518 -215
487 -271 -6 -11 -4 -26 5 -44 15 -32 7 -62 -26 -97 -30 -31 -36 -29 -15 6 15
25 15 31 3 43 -44 43 -179 117 -218 119 -12 0 -11 2 4 9 18 8 18 9 -6 9 -31 1
-169 47 -184 62 -7 7 -1 8 20 3 74 -17 6 8 -150 55 -168 52 -314 102 -347 121
-10 6 -22 10 -27 10 -5 0 -26 7 -47 16 -22 9 -41 16 -44 16 -3 0 -16 6 -30 13
-14 8 -74 37 -135 66 -104 50 -226 124 -270 165 -11 11 -36 31 -55 45 -62 47
-88 77 -157 182 -29 44 -53 76 -53 73 0 -4 -6 -1 -14 6 -8 7 -12 16 -10 20 2
3 1 8 -4 10 -4 1 -17 16 -30 32 -12 16 -22 23 -22 16 0 -10 -4 -9 -17 1 -15
13 -15 12 -5 -8 7 -12 22 -29 35 -38 12 -8 21 -18 20 -20 -2 -3 -1 -4 1 -2 12
7 71 -63 121 -142 6 -9 18 -27 28 -40 27 -38 20 -44 -18 -14 -19 15 -33 33
-31 40 3 7 -1 10 -11 6 -12 -5 -14 -1 -8 18 4 17 3 20 -3 10 -8 -11 -12 -9
-22 10 -7 13 -21 34 -32 46 -12 12 -17 27 -13 34 5 7 4 10 -2 6 -17 -11 -129
135 -118 153 3 5 1 20 -5 32 -10 21 -10 21 3 5 8 -10 19 -16 24 -15z m173 -32
c0 -6 5 -8 12 -4 7 4 8 3 4 -5 -10 -15 -25 -3 -50 41 l-18 33 26 -27 c14 -15
26 -32 26 -38z m-217 -32 c20 -31 58 -80 83 -110 55 -64 80 -107 37 -63 -39
40 -135 171 -158 215 -23 46 -8 29 38 -42z m-18 -85 c3 -12 10 -22 16 -20 7 1
14 -5 16 -13 4 -12 3 -12 -5 -2 -5 8 -12 12 -15 10 -3 -1 -14 9 -26 23 -14 19
-16 26 -6 26 7 0 16 -11 20 -24z m377 -45 c5 1 7 -2 3 -8 -9 -14 -18 -7 -55
43 l-32 42 37 -40 c20 -22 41 -39 47 -37z m53 -30 c4 -3 2 -9 -3 -12 -5 -3
-15 1 -21 8 -10 11 -9 14 3 12 9 -1 18 -5 21 -8z m30 -28 c3 -6 -1 -7 -9 -4
-18 7 -21 14 -7 14 6 0 13 -4 16 -10z m-389 -77 c-18 -54 -27 -105 -17 -99 5
3 12 23 16 43 3 21 14 49 22 62 l16 25 17 -22 c16 -20 17 -25 3 -64 -13 -36
-14 -50 -3 -88 l13 -45 9 40 c10 48 31 75 22 29 -7 -35 11 -78 45 -108 24 -22
28 -38 6 -30 -8 4 -15 1 -15 -7 0 -7 3 -9 6 -6 7 6 34 -11 84 -54 24 -20 9
-17 -18 5 -8 5 -23 12 -35 13 -12 2 -28 10 -37 18 -9 8 -22 15 -28 15 -15 0
-80 58 -94 84 -6 11 -15 35 -19 51 -5 22 -7 24 -8 8 -2 -33 34 -108 68 -144
40 -41 39 -48 -1 -14 -94 80 -121 174 -77 276 25 57 44 66 25 12z m1509 -13
c3 -6 -1 -7 -9 -4 -18 7 -21 14 -7 14 6 0 13 -4 16 -10z m-990 -29 c3 -5 0
-13 -6 -17 -7 -4 -9 -3 -5 4 3 5 0 13 -6 15 -9 4 -10 6 -1 6 6 1 14 -3 18 -8z
m1128 -42 c71 -36 72 -37 64 -45 -3 -4 -28 6 -54 21 -105 61 -111 74 -10 24z
m205 -57 c24 -14 32 -70 10 -76 -7 -3 -26 -8 -43 -12 -22 -5 -25 -8 -12 -11
13 -3 17 -12 15 -31 -3 -26 -6 -27 -67 -30 -49 -2 -67 1 -73 12 -4 8 -22 18
-40 21 -30 7 -31 8 -13 21 17 13 14 14 -32 14 -29 0 -54 4 -57 8 -3 5 0 9 7 9
37 2 217 37 217 43 0 3 -15 4 -33 2 -18 -2 -48 1 -67 6 l-35 9 48 8 c26 4 47
10 47 14 0 11 104 5 128 -7z m-210 -39 c-10 -2 -28 -2 -40 0 -13 2 -5 4 17 4
22 1 32 -1 23 -4z m-958 -49 c0 -8 -19 -13 -24 -6 -3 5 1 9 9 9 8 0 15 -2 15
-3z m164 -74 c8 0 17 -4 20 -9 3 -4 40 -21 83 -37 43 -15 71 -30 62 -32 -21
-4 -307 118 -313 133 -2 6 27 -3 65 -22 37 -18 75 -33 83 -33z m226 -97 c0
-11 -5 -11 -20 -3 -11 6 -20 13 -20 15 0 2 9 3 20 2 11 -1 20 -7 20 -14z m50
-8 c0 -1 -8 -5 -18 -7 -11 -3 -19 0 -19 7 0 7 8 10 19 7 10 -2 18 -6 18 -7z
m-1057 -95 c-10 -18 -28 -51 -40 -74 -12 -22 -22 -36 -22 -31 0 6 11 30 24 55
14 25 30 55 36 68 7 12 14 20 16 18 3 -2 -4 -19 -14 -36z m33 -27 c-18 -32
-36 -76 -40 -98 l-7 -40 18 34 c19 38 123 151 123 134 0 -6 -7 -16 -16 -24 -9
-7 -37 -42 -62 -78 -26 -37 -51 -69 -57 -73 -5 -4 -10 -38 -10 -76 0 -72 10
-92 97 -207 l23 -30 -25 16 c-39 25 -128 166 -136 214 -6 42 6 108 29 155 12
26 87 130 93 130 2 0 -12 -26 -30 -57z m-105 -149 c-6 -28 -9 -32 -10 -14 -1
30 11 79 16 64 2 -6 -1 -28 -6 -50z m133 14 c-16 -25 -14 -49 7 -91 25 -49
159 -180 207 -203 19 -9 32 -18 29 -20 -7 -8 -58 15 -104 46 -47 32 -58 36
-47 19 5 -8 1 -8 -14 0 -11 6 -22 18 -26 28 -6 17 -5 17 8 1 7 -10 17 -18 21
-18 5 0 0 9 -10 20 -10 11 -22 17 -27 14 -14 -9 -58 36 -74 73 -20 46 -17 82
8 119 21 31 40 41 22 12z m-131 -118 c4 -30 3 -38 -3 -25 -8 19 -14 83 -6 74
2 -2 6 -24 9 -49z m557 -70 c8 -5 11 -10 5 -10 -5 0 -17 5 -25 10 -8 5 -10 10
-5 10 6 0 17 -5 25 -10z m-150 -36 c0 -2 -9 0 -20 6 -11 6 -20 13 -20 16 0 2
9 0 20 -6 11 -6 20 -13 20 -16z m77 -75 c31 -28 144 -77 237 -104 86 -24 309
-55 402 -55 100 0 238 25 282 51 40 23 78 25 86 3 9 -24 2 -29 -64 -49 -33
-10 -58 -21 -55 -24 12 -11 88 1 118 19 41 26 59 25 28 0 -13 -11 -19 -20 -14
-20 5 0 20 10 33 22 13 12 21 15 18 7 -6 -17 -80 -69 -90 -63 -5 3 -8 -2 -8
-11 0 -17 34 -13 82 11 42 21 61 18 52 -8 -9 -29 -18 -35 -81 -49 -36 -8 -50
-16 -46 -25 8 -23 -54 -16 -247 25 -25 5 -79 14 -120 21 -89 14 -247 55 -263
69 -7 5 -21 11 -32 14 -11 2 0 3 25 0 62 -5 142 -24 135 -31 -12 -12 295 -52
402 -52 62 0 72 2 70 18 -1 14 -9 16 -43 14 -23 -2 -67 3 -98 12 -39 12 -80
15 -143 12 -58 -3 -76 -2 -53 3 l35 8 -40 2 c-22 0 -101 10 -175 21 -215 32
-375 87 -449 153 -20 18 -53 43 -73 55 -21 13 -38 26 -38 29 0 8 97 -51 127
-78z m320 5 c-3 -3 -12 -4 -19 -1 -8 3 -5 6 6 6 11 1 17 -2 13 -5z m83 -20
l35 -14 -35 6 c-19 4 -44 10 -55 15 l-20 8 20 0 c11 0 36 -7 55 -15z m-439
-35 c33 -15 37 -19 15 -14 -16 3 -39 13 -50 21 -29 20 -16 17 35 -7z m709 0
c197 -7 250 -14 250 -30 0 -23 -396 10 -455 37 -16 8 -21 11 -10 8 11 -4 108
-10 215 -15z m-67 -66 c-7 -2 -19 -2 -25 0 -7 3 -2 5 12 5 14 0 19 -2 13 -5z
m-2026 -825 c11 -35 37 -129 59 -210 21 -82 42 -148 45 -148 3 0 11 24 19 53
7 28 28 104 45 167 18 63 38 134 44 157 11 42 12 42 56 41 25 0 49 -6 54 -12
4 -6 27 -87 50 -181 42 -168 60 -229 67 -222 2 2 18 53 35 113 16 60 44 153
60 207 l31 97 44 -2 c24 -2 44 -5 44 -7 0 -3 -22 -72 -49 -155 -41 -125 -113
-353 -127 -403 -2 -8 -21 -13 -48 -13 -42 0 -46 2 -52 28 -21 94 -98 389 -104
401 -5 10 -10 4 -14 -20 -4 -19 -32 -118 -63 -221 l-56 -186 -45 -4 c-24 -2
-46 0 -49 5 -2 4 -13 40 -22 80 -24 98 -107 376 -130 437 -10 27 -16 51 -13
54 3 4 27 6 53 6 l47 0 19 -62z m2714 -48 l63 -111 33 58 c18 32 45 82 60 110
l28 53 82 0 81 0 12 -32 c6 -18 41 -116 76 -218 36 -102 69 -189 74 -194 5 -5
13 10 20 35 6 24 27 96 47 159 19 63 44 145 56 183 l20 67 49 0 c31 0 48 -4
48 -12 0 -7 -41 -138 -92 -290 l-92 -278 -52 0 -52 0 -46 118 c-25 64 -66 176
-92 247 -53 150 -63 170 -74 159 -4 -5 -36 -61 -69 -124 l-62 -115 22 -40 c12
-22 48 -80 79 -130 31 -49 60 -96 64 -102 5 -10 -7 -13 -48 -13 -31 0 -56 4
-56 10 0 5 -13 29 -29 52 -16 24 -42 67 -58 96 l-30 53 -59 -105 -59 -106 -47
0 c-27 0 -48 3 -48 7 0 4 17 36 39 72 21 36 57 97 79 134 l40 68 -48 87 c-26
48 -62 112 -79 142 -17 30 -31 58 -31 63 0 4 20 7 44 7 l44 0 63 -110z m1097
99 c109 -23 177 -129 151 -234 -11 -45 -58 -107 -89 -117 -11 -3 1 -29 48
-105 34 -56 62 -104 62 -107 0 -3 -24 -6 -54 -6 l-54 0 -32 63 c-18 34 -43 77
-57 95 -23 31 -26 32 -99 32 l-74 0 0 -95 0 -95 -49 0 -50 0 -3 283 c-2 155
-2 285 0 290 5 11 244 8 300 -4z m-2660 -97 l3 -52 50 0 49 0 0 -40 0 -40 -49
0 -49 0 -7 -96 c-4 -53 -3 -110 2 -127 8 -29 12 -32 51 -32 37 0 42 -3 48 -27
3 -15 3 -37 -1 -48 -13 -40 -134 -18 -169 31 -13 19 -16 50 -16 161 l0 138
-35 0 c-35 0 -35 0 -35 44 l0 45 35 -6 35 -6 0 51 c0 50 1 51 33 55 50 6 52 4
55 -51z m-264 -73 c60 -41 70 -74 74 -246 l4 -153 -46 0 c-38 0 -46 3 -46 19
0 17 -3 17 -47 -5 -141 -72 -288 41 -213 164 27 44 77 64 175 71 71 5 80 8 83
26 2 12 -8 31 -23 45 -36 33 -113 33 -168 1 -30 -19 -40 -21 -52 -11 -35 29
-12 64 65 100 61 28 144 24 194 -11z m691 -3 c25 -15 45 -30 45 -34 0 -4 -11
-20 -23 -36 l-24 -29 -31 23 c-20 15 -50 25 -84 28 -45 3 -57 0 -77 -19 l-24
-22 23 -19 c12 -10 41 -23 63 -29 23 -5 64 -18 92 -27 87 -30 117 -107 70
-178 -40 -61 -168 -84 -257 -45 -57 24 -71 42 -59 74 14 37 28 41 59 18 61
-43 161 -48 186 -8 19 31 -7 51 -110 84 -139 45 -163 76 -128 162 26 65 83 93
177 87 38 -3 72 -13 102 -30z m412 -2 c119 -74 137 -248 37 -347 -77 -77 -219
-76 -291 1 -79 85 -86 227 -16 307 69 79 179 95 270 39z m460 7 c50 -37 61
-79 68 -248 l6 -153 -44 0 -45 0 -4 143 c-4 159 -12 182 -67 197 -26 7 -42 6
-67 -6 -52 -25 -64 -63 -64 -207 l0 -125 -41 -4 c-22 -2 -42 -2 -45 1 -2 2 -4
98 -4 213 l0 209 42 -3 c39 -3 44 -6 49 -33 4 -16 7 -25 8 -18 0 6 20 24 44
38 52 32 117 30 164 -4z"/>
<path d="M3405 6880 c-44 -10 -100 -25 -125 -33 l-45 -15 53 -1 c28 -1 52 3
52 8 0 5 26 12 58 16 64 7 158 44 112 43 -14 0 -61 -8 -105 -18z"/>
<path d="M3595 6873 c-22 -8 -62 -21 -90 -28 -27 -7 -40 -13 -28 -14 30 -1
125 24 160 43 36 20 10 19 -42 -1z"/>
<path d="M3740 6851 l-75 -26 52 -3 c36 -2 62 3 85 15 18 10 47 23 63 30 l30
11 -40 0 c-22 0 -74 -12 -115 -27z"/>
<path d="M3383 6823 c15 -2 37 -2 50 0 12 2 0 4 -28 4 -27 0 -38 -2 -22 -4z"/>
<path d="M3845 6823 c-26 -7 -68 -40 -58 -46 4 -2 28 8 53 24 44 28 45 32 5
22z"/>
<path d="M4020 6815 c-36 -8 -87 -23 -114 -33 l-49 -19 59 -24 c47 -18 87 -24
199 -29 113 -5 149 -11 188 -28 37 -17 169 -42 219 -42 15 0 8 21 -18 55 -37
49 -112 82 -239 105 -157 30 -173 31 -245 15z m205 -45 l20 -9 -20 0 c-11 0
-27 4 -35 9 -13 9 -13 10 0 9 8 0 24 -4 35 -9z m122 -26 c-3 -3 -12 -4 -19 -1
-8 3 -5 6 6 6 11 1 17 -2 13 -5z"/>
<path d="M3348 6783 c7 -3 16 -2 19 1 4 3 -2 6 -13 5 -11 0 -14 -3 -6 -6z"/>
<path d="M3533 6780 c37 -6 101 -19 142 -30 41 -11 77 -20 80 -20 4 0 3 -5 -1
-11 -4 -7 -2 -10 5 -8 55 19 -86 69 -209 74 l-85 4 68 -9z"/>
<path d="M3369 6763 c-13 -16 -12 -17 4 -4 9 7 17 15 17 17 0 8 -8 3 -21 -13z"/>
<path d="M3195 6759 c-100 -17 -161 -33 -215 -56 -44 -19 -48 -23 -20 -17 77
14 83 14 35 -3 -56 -18 -60 -21 -54 -28 3 -2 41 7 85 20 43 14 124 30 179 36
110 13 135 23 83 35 -32 7 -32 8 -8 15 24 7 24 7 -5 7 -16 0 -52 -4 -80 -9z
m-65 -39 c0 -5 -15 -10 -32 -9 -31 1 -32 1 -8 9 35 11 40 11 40 0z"/>
<path d="M3425 6734 c-88 -46 -84 -49 68 -58 96 -6 111 8 22 19 -66 9 -83 25
-26 25 56 0 192 -20 213 -31 10 -6 23 -7 30 -3 25 16 -96 56 -207 69 -42 5
-58 1 -100 -21z"/>
<path d="M3815 6720 c-18 -20 -18 -20 11 -20 16 0 54 -7 84 -15 78 -21 82 -18
20 14 -82 42 -94 44 -115 21z"/>
<path d="M3115 6668 c-127 -31 -256 -76 -312 -108 -51 -29 -72 -57 -35 -46 9
3 31 8 47 11 23 4 25 3 10 -4 -11 -4 -33 -13 -50 -17 -24 -8 -31 -16 -33 -41
-3 -26 1 -32 20 -36 l23 -4 -22 -2 c-28 -1 -28 -18 -4 -116 16 -64 18 -68 25
-40 4 16 17 50 28 75 71 160 104 192 234 232 49 15 109 30 134 34 50 8 62 15
91 56 l20 28 -48 -1 c-26 -1 -84 -10 -128 -21z m98 -19 c-6 -6 -30 -13 -54
-16 -24 -3 -52 -10 -61 -15 -12 -5 -18 -5 -18 1 0 11 14 16 90 30 25 5 47 9
50 10 2 1 -1 -4 -7 -10z m-253 -69 c0 -9 -71 -33 -78 -25 -4 4 55 32 71 34 4
1 7 -3 7 -9z m45 0 c-3 -5 -10 -10 -16 -10 -5 0 -9 5 -9 10 0 6 7 10 16 10 8
0 12 -4 9 -10z m-140 -40 c3 -5 1 -10 -4 -10 -6 0 -11 5 -11 10 0 6 2 10 4 10
3 0 8 -4 11 -10z m20 -30 c-3 -5 -11 -10 -16 -10 -6 0 -7 5 -4 10 3 6 11 10
16 10 6 0 7 -4 4 -10z m-35 -64 c0 -2 -7 -7 -16 -10 -8 -3 -12 -2 -9 4 6 10
25 14 25 6z m-70 -80 c0 -3 -4 -8 -10 -11 -5 -3 -10 -1 -10 4 0 6 5 11 10 11
6 0 10 -2 10 -4z"/>
<path d="M3633 6649 c35 -19 37 -22 21 -33 -9 -7 -14 -18 -10 -25 8 -13 46 27
46 48 0 14 -42 31 -73 31 -17 -1 -14 -5 16 -21z"/>
<path d="M3740 6656 c-9 -11 -6 -24 10 -56 12 -23 19 -44 17 -47 -8 -8 -49 56
-42 67 15 25 -14 7 -34 -21 -25 -34 -25 -34 32 -65 41 -22 64 -25 78 -8 6 8
17 14 23 14 6 0 4 -5 -4 -10 -13 -8 -13 -10 2 -10 9 0 20 5 23 10 3 6 12 10
18 10 7 0 6 -4 -3 -10 -21 -14 -4 -12 59 5 30 8 85 17 121 21 56 5 72 3 96
-12 44 -28 184 -135 184 -140 0 -6 -12 1 -68 41 -110 76 -125 83 -184 84 -61
1 -208 -27 -208 -39 0 -5 10 -11 23 -14 12 -3 60 -31 107 -61 76 -51 89 -56
125 -51 22 3 84 9 138 12 53 4 97 11 97 15 0 10 -64 84 -95 111 -27 23 -231
113 -323 144 -78 25 -142 31 -142 14 0 -7 -6 -7 -19 -1 -14 8 -22 7 -31 -3z
m140 -21 c31 -18 16 -18 -30 0 -23 9 -28 14 -15 14 11 0 31 -6 45 -14z m-106
-21 c5 -14 4 -15 -9 -4 -17 14 -19 20 -6 20 5 0 12 -7 15 -16z m51 -5 c11 -16
1 -19 -13 -3 -7 8 -8 14 -3 14 5 0 13 -5 16 -11z m125 -44 c-19 -7 -44 -13
-55 -13 -11 0 -2 5 20 13 53 17 80 17 35 0z"/>
<path d="M2882 6638 c-24 -11 -42 -21 -40 -24 7 -6 88 28 88 38 0 4 -1 8 -2 7
-2 0 -23 -10 -46 -21z"/>
<path d="M3325 6650 c-33 -13 -117 -117 -151 -186 -17 -35 -36 -70 -43 -77
-14 -18 -56 -184 -66 -261 l-7 -58 79 64 c67 55 225 167 289 204 17 10 15 13
-24 24 -57 18 -47 23 18 9 71 -15 88 -5 138 78 22 38 48 75 56 83 9 7 16 16
16 20 0 12 -77 27 -204 40 -97 11 -110 10 -118 -4 -5 -9 -18 -16 -30 -16 -19
0 -18 2 8 28 29 27 30 27 114 19 47 -4 115 -11 153 -15 37 -5 67 -5 67 -2 0
15 -192 61 -249 59 -14 0 -35 -4 -46 -9z m13 -115 c2 -2 -22 -5 -53 -7 -46 -2
-53 -1 -38 10 14 10 78 8 91 -3z m217 -22 c-119 -14 -230 -38 -297 -64 -44
-17 -82 -28 -86 -25 -14 15 30 38 114 60 105 29 135 33 229 33 39 0 57 -2 40
-4z m-230 -124 c30 -9 30 -9 -4 -4 -18 3 -49 5 -67 5 -19 0 -34 4 -34 9 0 10
55 5 105 -10z m12 -85 c-3 -3 -12 -4 -19 -1 -8 3 -5 6 6 6 11 1 17 -2 13 -5z
m-102 -11 c-11 -2 -40 -13 -64 -24 -24 -11 -45 -18 -48 -15 -8 8 81 45 107 44
20 0 21 -1 5 -5z"/>
<path d="M4120 6640 c14 -11 39 -26 55 -34 51 -26 11 -17 -66 14 -43 17 -66
23 -58 14 30 -29 152 -61 284 -74 87 -8 160 -22 220 -41 49 -16 95 -29 101
-29 16 0 157 -75 210 -111 23 -16 44 -26 47 -23 3 3 -10 22 -29 42 -44 48 -44
62 1 23 20 -17 41 -31 49 -31 7 0 31 -16 53 -35 22 -19 43 -31 47 -28 3 3 6 1
6 -5 0 -7 9 -21 19 -31 10 -10 40 -52 67 -92 26 -41 51 -76 54 -79 13 -9 53
-93 76 -160 l24 -65 0 61 c0 34 -7 81 -15 104 -8 23 -12 47 -8 53 3 5 1 7 -4
4 -16 -10 -22 -2 -105 156 -11 20 -22 37 -25 37 -2 0 -1 -6 2 -12 4 -7 0 -5
-8 4 -8 10 -16 16 -19 13 -2 -3 -15 7 -29 22 l-24 28 25 -20 c21 -17 20 -15
-5 16 -17 20 -33 34 -37 32 -5 -2 -8 0 -8 5 0 5 -24 21 -52 36 -49 25 -51 26
-26 4 15 -13 41 -33 58 -46 16 -13 30 -31 30 -40 0 -14 -3 -14 -18 4 -24 29
-80 66 -90 60 -5 -3 -20 6 -33 20 -23 25 -66 49 -82 46 -4 -1 -6 3 -5 9 3 11
-86 79 -104 79 -6 0 -7 -7 -4 -16 3 -8 2 -12 -4 -9 -6 3 -10 -3 -10 -14 0 -12
-5 -21 -11 -21 -7 0 -9 10 -7 24 7 34 -3 46 -43 52 -19 3 -45 9 -59 14 -31 11
-148 30 -181 30 -23 -1 -23 -1 -4 -12 36 -20 77 -58 63 -58 -7 0 -30 11 -50
25 -20 14 -49 25 -63 25 -14 0 -51 8 -83 19 -31 10 -77 21 -102 24 l-45 6 25
-19z m440 -84 c0 -20 -4 -23 -22 -18 -19 5 -20 7 -5 10 9 2 17 10 17 18 0 8 2
14 5 14 3 0 5 -11 5 -24z"/>
<path d="M3199 6595 c-3 -2 -50 -18 -105 -35 -164 -50 -176 -59 -219 -153 -40
-87 -34 -89 95 -30 36 17 84 38 107 48 23 10 51 27 61 39 28 30 86 136 75 136
-5 0 -12 -2 -14 -5z m-19 -53 c0 -14 -42 -29 -114 -41 -38 -7 -88 -21 -110
-32 l-41 -20 21 21 c12 12 57 30 113 44 50 13 95 26 98 30 9 9 33 7 33 -2z"/>
<path d="M3638 6523 c-21 -25 -119 -176 -116 -179 2 -1 19 -9 38 -18 33 -15
29 -15 -31 -1 -33 8 -30 15 -136 -315 -3 -9 -7 -11 -10 -4 -4 11 79 281 98
315 7 15 6 19 -6 19 -8 0 -15 -4 -15 -9 0 -5 -16 -16 -35 -25 -78 -37 -278
-183 -269 -197 3 -5 -1 -6 -9 -4 -13 6 -75 -54 -96 -92 -6 -12 -12 -72 -12
-135 -2 -97 -3 -105 -9 -58 -5 30 -9 84 -9 120 l-1 65 -45 -69 c-25 -38 -45
-75 -45 -82 0 -7 -3 -14 -7 -16 -24 -10 -133 -222 -121 -233 3 -3 173 106 186
119 2 2 -4 17 -13 33 l-17 28 22 -24 21 -25 57 32 c31 18 97 54 147 80 50 26
112 69 140 96 27 27 82 73 120 102 78 58 281 184 299 184 14 0 -77 43 -127 59
-21 7 -36 15 -34 18 3 2 34 -7 69 -20 103 -41 111 -40 238 10 63 25 119 49
123 53 15 13 -137 104 -216 129 -34 12 -42 10 -115 -25 -42 -20 -93 -43 -112
-51 -31 -13 -33 -13 -20 0 13 13 110 58 175 81 18 7 16 10 -15 26 -58 29 -75
32 -92 13z m-690 -718 c-3 -3 -9 2 -12 12 -6 14 -5 15 5 6 7 -7 10 -15 7 -18z"/>
<path d="M4326 6520 c71 -25 93 -42 134 -99 26 -37 46 -54 79 -65 25 -9 49
-16 54 -16 13 0 -1 69 -19 98 -8 12 -10 22 -5 22 14 0 27 -22 45 -76 9 -29 25
-58 34 -67 25 -22 162 -88 170 -83 5 3 14 0 22 -6 12 -8 11 -9 -5 -4 -16 5
-15 2 4 -12 181 -127 273 -205 289 -243 11 -27 11 -30 -5 -27 -14 2 -22 -10
-36 -52 -10 -30 -25 -62 -33 -71 -8 -8 -14 -21 -14 -27 0 -16 -50 -104 -69
-122 -9 -8 -27 -27 -40 -42 l-23 -27 63 -69 c35 -38 77 -86 93 -107 l29 -38
29 34 c15 19 47 70 69 115 35 69 41 92 45 160 l5 79 -81 160 c-44 88 -78 149
-74 136 4 -16 3 -21 -5 -17 -6 4 -11 18 -11 31 0 25 -89 143 -156 207 -50 47
-202 142 -262 163 -26 10 -56 21 -67 25 -52 21 -97 33 -180 46 -119 18 -141
17 -79 -6z m567 -245 c-3 -9 -8 -14 -10 -11 -3 3 -2 9 2 15 9 16 15 13 8 -4z
m241 -361 c8 -20 8 -69 0 -61 -10 10 -22 77 -14 77 4 0 11 -7 14 -16z m26 -99
c0 -14 -2 -25 -4 -25 -2 0 -6 11 -8 25 -3 14 -1 25 3 25 5 0 9 -11 9 -25z
m-38 -10 c14 -17 15 -24 4 -44 l-13 -24 0 29 c0 16 -3 38 -8 49 -4 11 -6 18
-4 15 2 -3 12 -14 21 -25z m-71 -302 c-9 -16 -10 -14 -11 12 0 21 3 26 11 18
8 -8 8 -16 0 -30z"/>
<path d="M4909 6510 c30 -16 56 -28 58 -26 7 7 -52 43 -82 50 -22 5 -16 -1 24
-24z"/>
<path d="M4322 6457 c66 -77 65 -77 112 -77 33 0 44 12 15 16 -5 1 -13 2 -19
3 -5 0 -24 14 -42 29 -18 16 -42 32 -52 36 -10 3 -16 9 -13 12 7 8 44 -13 86
-47 42 -34 54 -29 20 7 -27 29 -61 49 -121 70 l-40 14 54 -63z"/>
<path d="M2508 6404 c-38 -37 -68 -71 -68 -75 0 -5 -6 -9 -14 -9 -18 0 -96
-88 -96 -108 0 -8 -3 -12 -7 -9 -9 9 -67 -85 -80 -130 -16 -53 -32 -137 -28
-141 2 -2 16 20 31 49 15 30 37 70 50 91 14 21 21 45 18 55 -5 15 -4 16 5 3 9
-12 11 -11 11 8 0 28 43 97 73 116 12 9 40 39 62 68 21 29 57 74 78 101 21 26
37 47 35 47 -1 0 -33 -30 -70 -66z"/>
<path d="M3022 6374 c-82 -35 -195 -96 -221 -120 -4 -4 86 -221 105 -252 24
-36 35 -72 23 -72 -10 0 -68 119 -116 238 -14 35 -28 61 -30 58 -3 -3 5 -40
18 -83 20 -68 37 -112 92 -237 l13 -29 34 44 c18 24 47 58 63 75 24 27 30 45
38 110 14 113 49 254 71 287 11 15 18 27 16 27 -2 -1 -49 -21 -106 -46z m16
-128 c-16 -8 -34 -18 -40 -21 -7 -4 -2 3 12 14 14 11 32 21 40 21 8 0 3 -7
-12 -14z m-59 -30 c-26 -24 -99 -74 -99 -67 0 5 21 23 48 40 41 27 64 39 51
27z m-34 -86 c-10 -11 -23 -20 -29 -20 -6 0 0 9 14 20 32 25 38 25 15 0z"/>
<path d="M4925 6340 c3 -5 10 -10 16 -10 5 0 9 5 9 10 0 6 -7 10 -16 10 -8 0
-12 -4 -9 -10z"/>
<path d="M4980 6327 c0 -3 18 -25 40 -49 55 -60 95 -138 136 -270 20 -62 49
-135 66 -163 16 -27 27 -41 24 -30 -3 11 -10 42 -16 68 -6 27 -22 75 -35 108
-14 32 -25 62 -25 67 0 20 -121 209 -154 241 -20 19 -36 32 -36 28z"/>
<path d="M4940 6312 c0 -5 13 -21 30 -37 16 -16 42 -46 56 -67 31 -45 43 -44
19 2 -30 58 -105 131 -105 102z"/>
<path d="M2410 6185 c-6 -8 -9 -19 -6 -24 7 -11 -33 -105 -41 -97 -3 3 2 19
11 37 23 45 21 66 -4 37 -51 -61 -71 -89 -116 -167 -47 -82 -49 -88 -52 -175
l-4 -91 31 45 c16 25 45 61 62 80 99 107 119 139 119 190 0 27 4 59 9 72 14
38 22 108 12 108 -5 0 -14 -7 -21 -15z"/>
<path d="M5226 6167 c3 -10 9 -15 12 -12 3 3 0 11 -7 18 -10 9 -11 8 -5 -6z"/>
<path d="M5310 6089 c0 -19 42 -101 71 -137 26 -33 24 -15 -6 49 -29 64 -64
112 -65 88z"/>
<path d="M2150 5989 c-11 -24 -20 -53 -20 -64 l-1 -20 -10 20 c-8 17 -9 16 -3
-5 8 -34 8 -42 -1 -65 -4 -11 3 -5 15 12 21 32 55 151 45 161 -2 3 -14 -15
-25 -39z"/>
<path d="M5318 5954 c-3 -5 -9 -53 -13 -107 -6 -85 -5 -101 11 -125 36 -53 44
-75 43 -116 l-2 -41 -6 45 c-4 25 -15 59 -25 75 -17 30 -17 30 -10 -50 4 -44
10 -105 13 -135 7 -54 7 -54 15 -21 4 18 19 57 32 86 13 31 26 85 30 127 6 65
3 82 -21 152 -29 79 -57 127 -67 110z m62 -296 c0 -6 -7 -5 -15 2 -8 7 -15 17
-15 22 0 6 7 5 15 -2 8 -7 15 -17 15 -22z"/>
<path d="M2133 5793 c-11 -21 -28 -85 -38 -143 -9 -58 -22 -114 -28 -125 -12
-22 -38 -127 -33 -132 2 -2 15 30 30 70 15 41 45 104 66 141 35 60 40 76 39
130 0 33 -4 69 -8 79 -6 15 -10 12 -28 -20z"/>
<path d="M5481 5762 c-1 -37 48 -172 62 -172 5 0 -37 152 -52 191 -9 21 -10
19 -10 -19z"/>
<path d="M5262 5710 c0 -19 2 -27 5 -17 2 9 2 25 0 35 -3 9 -5 1 -5 -18z"/>
<path d="M2073 5695 c-16 -53 -43 -173 -43 -188 0 -6 7 -2 15 10 20 28 47 147
43 187 l-4 31 -11 -40z"/>
<path d="M5241 5300 c-23 -33 -41 -63 -41 -68 0 -4 16 -32 36 -62 20 -30 33
-46 29 -36 -8 26 5 107 16 100 5 -3 9 24 9 60 0 36 -2 66 -4 66 -2 0 -23 -27
-45 -60z"/>
<path d="M2025 5165 c3 -65 11 -130 21 -158 20 -59 27 -57 13 3 -6 25 -17 95
-25 155 l-13 110 4 -110z"/>
<path d="M5602 5165 c-4 -105 -90 -445 -111 -445 -9 0 -34 -51 -28 -56 6 -6
54 51 70 83 8 15 24 66 36 113 12 47 26 94 32 105 5 11 8 72 6 135 -1 63 -4
93 -5 65z"/>
<path d="M5567 4805 c-9 -25 -12 -43 -7 -40 11 7 34 75 27 81 -3 3 -12 -16
-20 -41z"/>
<path d="M5466 4453 c-6 -14 -5 -15 5 -6 7 7 10 15 7 18 -3 3 -9 -2 -12 -12z"/>
<path d="M5500 4435 c-12 -19 -31 -43 -43 -52 -20 -16 -29 -42 -51 -145 -10
-44 9 -32 35 22 13 28 27 50 31 50 4 0 10 16 14 35 3 19 10 35 15 35 5 0 9 12
9 26 0 14 4 23 9 20 5 -3 9 6 9 19 0 14 -2 25 -3 25 -2 0 -13 -16 -25 -35z"/>
<path d="M5380 4325 c-3 -6 -40 -41 -83 -80 -80 -71 -117 -126 -210 -312 -39
-77 -99 -154 -193 -247 l-59 -58 50 28 c28 15 66 40 86 56 20 15 41 28 45 28
18 1 135 110 118 110 -9 0 -39 -22 -65 -49 -27 -26 -49 -46 -49 -43 0 3 25 37
55 77 59 76 104 123 111 115 4 -5 48 55 106 143 17 26 33 45 35 43 3 -2 -13
-30 -34 -62 -21 -31 -46 -71 -56 -88 -16 -27 -14 -26 17 9 83 92 139 214 134
291 -2 27 -5 44 -8 39z m-3 -57 c-3 -8 -6 -5 -6 6 -1 11 2 17 5 13 3 -3 4 -12
1 -19z m-20 -70 c-3 -7 -5 -2 -5 12 0 14 2 19 5 13 2 -7 2 -19 0 -25z"/>
<path d="M5466 4235 c-9 -26 -7 -32 5 -12 6 10 9 21 6 23 -2 3 -7 -2 -11 -11z"/>
<path d="M5163 3928 c-23 -30 -24 -41 -2 -21 12 12 20 25 17 28 -3 3 -10 0
-15 -7z"/>
<path d="M3693 5973 c9 -2 23 -2 30 0 6 3 -1 5 -18 5 -16 0 -22 -2 -12 -5z"/>
<path d="M2854 3274 c2 -20 9 -28 25 -29 l21 -2 -22 26 c-13 14 -24 28 -25 30
-1 2 -1 -9 1 -25z"/>
<path d="M5568 1032 l-38 -3 0 -95 c0 -107 -10 -97 105 -95 39 1 82 7 97 12
26 11 59 62 53 83 -2 6 -6 23 -9 38 -4 16 -18 33 -34 42 -29 14 -112 23 -174
18z"/>
<path d="M2670 727 l-55 -12 0 -40 c0 -54 32 -71 100 -54 52 13 75 39 75 86 0
31 -2 33 -32 32 -18 0 -58 -6 -88 -12z"/>
<path d="M3770 894 c-66 -22 -90 -57 -90 -129 0 -139 136 -194 219 -89 40 51
23 161 -31 196 -27 18 -77 29 -98 22z"/>
</g>
</svg>
